<svg xmlns="http://www.w3.org/2000/svg" width="600" height="400" viewBox="0 0 600 400"><rect width="100%" height="100%" fill="#0000FF"/><path fill="#FFFFFF" d="M212.64 156.275h12.48v88.93h-14.57v-57.44q0-3.44.36-7.44l-26.87 50.49q-1.91 3.63-5.84 3.63h-2.34q-3.94 0-5.84-3.63l-27.19-50.68q.19 2.03.31 4t.12 3.63v57.44h-14.57v-88.93h12.48q1.11 0 1.91.06t1.44.31q.65.25 1.17.8.53.55 1.02 1.48l26.63 49.38q1.04 1.97 1.93 4.06.9 2.09 1.76 4.3.86-2.27 1.78-4.39t1.97-4.09l26.26-49.26q.49-.93 1.05-1.48.55-.55 1.19-.8.65-.25 1.45-.31t1.91-.06m30.38 25.83h15.25v63.1h-15.25zm17.34-18.39q0 1.97-.8 3.69t-2.12 3.02q-1.32 1.29-3.11 2.06-1.78.77-3.81.77-1.97 0-3.72-.77t-3.04-2.06q-1.3-1.3-2.07-3.02-.76-1.72-.76-3.69 0-2.03.76-3.81.77-1.78 2.07-3.08 1.29-1.29 3.04-2.06 1.75-.76 3.72-.76 2.03 0 3.81.76 1.79.77 3.11 2.06 1.32 1.3 2.12 3.08t.8 3.81m55.35 25.22-3.44 5.47q-.62.99-1.3 1.38-.67.4-1.72.4-1.1 0-2.37-.61-1.26-.62-2.92-1.38-1.66-.77-3.78-1.39-2.12-.61-5.01-.61-4.49 0-7.04 1.9-2.55 1.91-2.55 4.98 0 2.03 1.32 3.42 1.32 1.38 3.5 2.43 2.19 1.04 4.95 1.87 2.77.83 5.63 1.82 2.86.98 5.63 2.24t4.95 3.2 3.5 4.64q1.33 2.71 1.33 6.52 0 4.55-1.63 8.4-1.63 3.84-4.83 6.64t-7.9 4.37q-4.71 1.56-10.86 1.56-3.26 0-6.36-.58-3.11-.58-5.97-1.63t-5.29-2.46-4.27-3.07l3.5-5.79q.68-1.04 1.6-1.59.92-.56 2.34-.56 1.41 0 2.67.8 1.27.8 2.93 1.72 1.66.93 3.9 1.72 2.25.8 5.69.8 2.71 0 4.64-.64 1.94-.65 3.2-1.69 1.26-1.05 1.85-2.43.58-1.39.58-2.86 0-2.22-1.32-3.63t-3.51-2.46q-2.18-1.05-4.98-1.88t-5.72-1.81-5.72-2.31q-2.8-1.32-4.98-3.35t-3.51-4.98q-1.32-2.95-1.32-7.13 0-3.88 1.54-7.38 1.54-3.51 4.52-6.12 2.98-2.62 7.44-4.18 4.46-1.57 10.3-1.57 6.52 0 11.87 2.15t8.92 5.66m45.45 39.97v-10.64q-6.58.31-11.07 1.14t-7.2 2.12q-2.7 1.29-3.87 3.02-1.17 1.72-1.17 3.75 0 4 2.37 5.72t6.18 1.72q4.67 0 8.09-1.69 3.41-1.69 6.67-5.14m-32.1-33.15-2.71-4.85q10.89-9.97 26.2-9.97 5.53 0 9.9 1.82 4.37 1.81 7.38 5.04t4.58 7.72 1.57 9.84v39.85h-6.89q-2.15 0-3.32-.65-1.17-.64-1.84-2.61l-1.36-4.55q-2.4 2.15-4.67 3.78-2.28 1.63-4.74 2.74t-5.25 1.69q-2.8.58-6.19.58-3.99 0-7.38-1.07-3.38-1.08-5.84-3.23t-3.81-5.35-1.35-7.44q0-2.4.8-4.77t2.61-4.52 4.7-4.06q2.89-1.9 7.11-3.32 4.21-1.41 9.81-2.31 5.59-.89 12.79-1.07v-3.69q0-6.34-2.71-9.38-2.7-3.04-7.81-3.04-3.69 0-6.12.86t-4.27 1.93q-1.85 1.08-3.35 1.94-1.51.86-3.35.86-1.6 0-2.71-.83t-1.78-1.94m73.18 10.64h28.66q0-2.95-.83-5.56-.83-2.62-2.49-4.58-1.66-1.97-4.21-3.11-2.56-1.14-5.94-1.14-6.58 0-10.36 3.75-3.78 3.76-4.83 10.64m38.75 9.17h-39.06q.37 4.86 1.73 8.39 1.35 3.54 3.56 5.84 2.22 2.31 5.26 3.45t6.73 1.14 6.37-.87q2.68-.86 4.67-1.9 2-1.05 3.51-1.91t2.92-.86q1.91 0 2.83 1.42l4.37 5.53q-2.53 2.95-5.66 4.95-3.14 2-6.55 3.2t-6.95 1.69-6.86.49q-6.58 0-12.24-2.18-5.65-2.18-9.84-6.46-4.18-4.27-6.58-10.58-2.4-6.3-2.4-14.6 0-6.46 2.1-12.15 2.09-5.69 5.99-9.9 3.91-4.21 9.53-6.67 5.63-2.46 12.7-2.46 5.97 0 11.01 1.9 5.05 1.91 8.67 5.57 3.63 3.66 5.69 8.98t2.06 12.14q0 3.45-.74 4.65-.73 1.2-2.82 1.2m15.12-61.75h15.2v91.39h-15.2z"/></svg>